<svg width="1446" height="1447" viewBox="0 0 1446 1447" fill="none" xmlns="http://www.w3.org/2000/svg">
<path d="M747.654 198.238H280.652V268.238H747.654V284.323H393.316V443.234H280.652V513.234H393.316V527.686H747.654V688.231H280.652V758.231H747.654V882.023H991.017V758.231H1191.96V688.231H991.017V527.686H1275.34V1446.61H170.191V0H747.654V198.238ZM280.652 1248.23H1191.96V1178.23H280.652V1248.23ZM280.652 1003.23H1191.96V933.229H280.652V1003.23ZM1196.3 284.323H1139.73L991.016 135.611L991.017 79.043L1196.3 284.323Z" fill="white"/>
<path d="M921.016 0.00390625V354.328H1275.34V457.689H921.016V812.027H817.655V457.689H463.316V354.328H817.655V0.00390625H921.016Z" fill="white"/>
</svg>
